# Blender v2.79 (sub 0) OBJ File: 'boat.blend'
# www.blender.org
mtllib boat.mtl
o Hitbox_Cube.001
v 2.005115 -0.798435 -0.638585
v -1.799796 -0.585472 -0.638585
v 2.005115 0.798435 -0.638585
v -1.799796 0.585472 -0.638585
v 2.437698 0.000000 -0.638585
v 0.036333 -0.818058 -0.638585
v 0.036333 0.818058 -0.638585
v 0.939798 -0.846991 -0.652211
v 0.939798 0.846991 -0.652211
v 0.036333 -0.922255 0.575920
v -1.799796 -0.585472 0.385870
v -1.799796 0.585472 0.385870
v 0.939798 1.003994 0.620669
v 0.939798 -1.003994 0.620669
v 0.036333 0.922255 0.575920
v 2.694067 0.000000 0.638585
v 2.005115 -1.000000 0.638585
v 2.005115 1.000000 0.638585
v 2.504173 -0.500000 0.638585
v 2.375988 -0.399217 -0.638585
v 2.375988 0.399217 -0.638585
v 2.504173 0.500000 0.638585
vn -0.1050 -0.9916 -0.0752
vn -0.1024 -0.9918 -0.0769
vn -0.1507 -0.9875 -0.0460
vn -1.0000 0.0000 0.0000
vn -0.0162 0.9924 -0.1219
vn -0.0152 0.9924 -0.1223
vn 0.3876 0.9113 -0.1388
vn 0.4116 0.9009 -0.1381
vn 0.8605 -0.4897 -0.1402
vn 0.8577 -0.4949 -0.1397
vn 0.3876 -0.9113 -0.1388
vn 0.4116 -0.9009 -0.1381
vn 0.8605 0.4897 -0.1402
vn 0.8577 0.4949 -0.1397
vn 0.9872 0.0000 -0.1595
vn -0.1507 0.9875 -0.0460
vn -0.1024 0.9918 -0.0769
vn -0.1050 0.9916 -0.0752
vn -0.0162 -0.9924 -0.1219
vn -0.0152 -0.9924 -0.1223
vn -0.0000 0.0000 -1.0000
usemtl None
s 1
f 6//1 10//2 11//3 2//3
f 11//4 12//4 4//4 2//4
f 9//5 13//6 18//7 3//8
f 20//9 19//10 17//11 1//12
f 21//13 22//14 16//15 5//15
f 4//16 12//16 15//17 7//18
f 8//19 14//20 10//2 6//1
f 1//12 17//11 14//20 8//19
f 7//18 15//17 13//6 9//5
f 9//21 3//21 21//21 5//21 20//21 1//21 8//21 6//21 2//21 4//21 7//21
f 5//15 16//15 19//10 20//9
f 3//8 18//7 22//14 21//13
o Racing_Boat_Cube
v 0.913591 0.236416 0.466935
v 0.884807 0.221219 0.479872
v 0.877698 0.187070 0.483067
v 0.897617 0.159686 0.474114
v 0.929565 0.159686 0.459756
v 0.949484 0.187070 0.450803
v 0.942375 0.221219 0.453998
v 0.871540 0.213003 0.373373
v 0.845459 0.199311 0.392324
v 0.844424 0.168545 0.409034
v 0.869214 0.143872 0.410919
v 0.901162 0.143872 0.396560
v 0.916210 0.168545 0.376770
v 0.903027 0.199311 0.366451
v 0.837818 0.147403 0.298343
v 0.813905 0.137928 0.322117
v 0.817741 0.116636 0.349664
v 0.846437 0.099562 0.360240
v 0.878385 0.099562 0.345881
v 0.889527 0.116636 0.317400
v 0.871473 0.137928 0.296243
v 0.819104 0.052608 0.256704
v 0.796394 0.049226 0.283154
v 0.802933 0.041627 0.316716
v 0.833796 0.035533 0.332115
v 0.865744 0.035533 0.317756
v 0.874719 0.041627 0.284452
v 0.853962 0.049226 0.257281
v 0.819104 -0.052607 0.256704
v 0.796394 -0.049226 0.283154
v 0.802933 -0.041627 0.316716
v 0.833796 -0.035533 0.332115
v 0.865744 -0.035533 0.317756
v 0.874719 -0.041627 0.284452
v 0.853962 -0.049226 0.257281
v 0.837818 -0.147403 0.298343
v 0.813905 -0.137928 0.322117
v 0.817741 -0.116637 0.349664
v 0.846437 -0.099562 0.360240
v 0.878385 -0.099562 0.345881
v 0.889527 -0.116637 0.317400
v 0.871473 -0.137928 0.296243
v 0.871540 -0.213003 0.373373
v 0.845459 -0.199311 0.392324
v 0.844424 -0.168545 0.409034
v 0.869214 -0.143872 0.410919
v 0.901162 -0.143872 0.396560
v 0.916210 -0.168545 0.376770
v 0.903027 -0.199311 0.366451
v 0.913591 -0.236416 0.466935
v 0.884807 -0.221219 0.479872
v 0.877698 -0.187070 0.483067
v 0.897617 -0.159686 0.474114
v 0.929565 -0.159686 0.459756
v 0.949484 -0.187070 0.450803
v 0.942375 -0.221219 0.453998
v 0.955641 -0.213003 0.560497
v 0.924154 -0.199311 0.567419
v 0.910971 -0.168545 0.557100
v 0.926019 -0.143872 0.537310
v 0.957967 -0.143872 0.522951
v 0.982757 -0.168545 0.524836
v 0.981722 -0.199311 0.541546
v 0.989363 -0.147403 0.635527
v 0.955708 -0.137928 0.637627
v 0.937654 -0.116637 0.616470
v 0.948797 -0.099562 0.587989
v 0.980745 -0.099562 0.573630
v 1.009441 -0.116637 0.584206
v 1.013276 -0.137928 0.611753
v 1.008077 -0.052607 0.677166
v 0.973219 -0.049226 0.676589
v 0.952463 -0.041627 0.649418
v 0.961437 -0.035533 0.616114
v 0.993385 -0.035533 0.601755
v 1.024249 -0.041627 0.617154
v 1.030788 -0.049226 0.650716
v 1.008077 0.052608 0.677166
v 0.973219 0.049226 0.676589
v 0.952463 0.041627 0.649418
v 0.961437 0.035533 0.616114
v 0.993385 0.035533 0.601755
v 1.024249 0.041627 0.617154
v 1.030788 0.049226 0.650716
v 0.989363 0.147403 0.635528
v 0.955708 0.137927 0.637627
v 0.937654 0.116636 0.616470
v 0.948797 0.099562 0.587989
v 0.980745 0.099562 0.573631
v 1.009441 0.116636 0.584207
v 1.013276 0.137927 0.611753
v 0.955641 0.213003 0.560497
v 0.924154 0.199311 0.567419
v 0.910971 0.168545 0.557100
v 0.926020 0.143872 0.537310
v 0.957967 0.143872 0.522951
v 0.982758 0.168545 0.524836
v 0.981722 0.199311 0.541546
v 0.954679 -0.013588 0.515635
v 0.954679 0.013588 0.515635
v 0.926020 0.034983 0.537310
v 0.926020 -0.034983 0.537310
v 0.897617 0.074587 0.474114
v 0.882961 0.038072 0.441506
v 0.897617 0.003070 0.474114
v 0.912253 0.036847 0.506680
v 0.895653 0.056607 0.469746
v 0.890289 0.043241 0.457810
v 0.882961 -0.038072 0.441506
v 0.897617 -0.074587 0.474114
v 0.912253 -0.036847 0.506680
v 0.897617 -0.003070 0.474114
v 0.890289 -0.043241 0.457810
v 0.895653 -0.056607 0.469746
v 0.914909 0.038072 0.427147
v 0.929565 0.074587 0.459756
v 0.944084 0.021986 0.492060
v 0.937535 -0.000000 0.477491
v 0.922237 0.043241 0.443451
v 0.927601 0.056607 0.455387
v 0.929565 -0.074587 0.459756
v 0.914909 -0.038072 0.427147
v 0.944084 -0.021986 0.492060
v 0.927601 -0.056607 0.455387
v 0.922237 -0.043241 0.443451
v 0.957967 -0.034983 0.522951
v 0.957967 0.034983 0.522951
v 0.944201 0.036847 0.492322
v 0.929565 0.000000 0.459756
v 0.944201 -0.036847 0.492322
v 0.956489 -0.000000 0.519662
v 0.939345 0.013588 0.481518
v 0.949941 0.021986 0.505092
v 0.949941 -0.021986 0.505092
v 0.939345 -0.013588 0.481518
v 1.090365 -0.708289 0.471105
v 1.090365 0.708289 0.471105
v 1.090365 0.000000 0.471105
v 2.005115 -0.798435 -0.638585
v 1.980820 -0.837688 0.634477
v -1.799796 -0.585472 -0.638585
v -1.630214 -0.467713 0.398470
v 2.005115 0.798435 -0.638585
v 1.980820 0.837688 0.634477
v -1.799796 0.585472 -0.638585
v -1.630214 0.467713 0.398470
v -1.799796 0.000000 -0.638585
v -1.630511 0.000000 0.401658
v 2.437698 0.000000 -0.638585
v 2.539935 0.000000 0.632399
v 0.036333 -0.818058 -0.638585
v 0.050613 -0.752866 0.572205
v 0.036333 0.818058 -0.638585
v 0.050613 0.752866 0.572205
v 0.318951 0.000000 -0.638585
v 0.939798 -0.846991 -0.652211
v 0.947278 0.834016 0.615772
v 1.371034 0.000000 -0.652211
v 0.947278 -0.834016 0.615772
v 0.939798 0.846991 -0.652211
v 0.036333 -0.922255 0.575920
v -1.799796 -0.585472 0.385870
v -1.799796 0.000000 0.385870
v -1.799796 0.585472 0.385870
v 0.939798 1.003994 0.620669
v 2.013262 0.905953 0.635884
v 2.628502 0.000000 0.634286
v 2.013262 -0.905953 0.635884
v 0.939798 -1.003994 0.620669
v 0.036333 0.922255 0.575920
v 0.995905 0.000000 -0.270830
v -1.583362 0.000000 -0.457183
v 0.089452 0.000000 -0.317162
v 0.097762 0.752866 -0.286635
v 0.097762 -0.752866 -0.286635
v 0.994428 0.744913 -0.243069
v 0.994428 -0.744913 -0.243069
v -1.583065 -0.467713 -0.460371
v -1.583065 0.467713 -0.460371
v 1.277815 0.741683 -0.226883
v 1.277815 -0.741683 -0.226883
v 1.090365 0.000000 -0.266903
v 1.090365 -0.759968 -0.080502
v 1.090365 -0.743820 -0.237589
v 2.106976 -0.331573 0.471105
v 2.380394 0.000000 0.471105
v 1.304795 -0.712362 -0.227035
v 1.200603 -0.742563 -0.231293
v 2.106976 0.331573 0.471105
v 1.090365 0.759968 -0.080502
v 1.200603 0.742563 -0.231293
v 1.304795 0.712362 -0.227035
v 1.090365 0.743820 -0.237589
v 2.694067 0.000000 0.638585
v 2.005115 -1.000000 0.638585
v 2.005115 1.000000 0.638585
v 2.474373 0.000000 0.628100
v 1.791928 -0.830399 0.631958
v 1.791928 0.830399 0.631958
v 2.191106 0.000000 1.251698
v 2.116804 0.000000 1.203460
v 1.686582 -0.905953 1.135979
v 1.686582 0.905953 1.135979
v 1.659742 -0.837688 1.117700
v 1.659742 0.837688 1.117700
v -1.799796 -0.292736 -0.638585
v 2.504173 -0.500000 0.638585
v -1.799796 -0.292736 0.385870
v 2.375988 -0.399217 -0.638585
v 0.177642 -0.409029 -0.638585
v 1.155416 -0.423495 -0.652211
v 2.133151 -0.415200 0.630029
v -1.630363 -0.233856 0.400064
v 0.093607 -0.376433 -0.301899
v 0.995166 -0.372457 -0.256950
v -1.583213 -0.233856 -0.458777
v 1.090365 -0.371910 -0.252246
v 2.477190 -0.452976 0.635085
v 2.412279 -0.418844 0.633438
v 2.095152 -0.452976 1.193838
v 2.040175 -0.418844 1.160580
v -1.799796 0.292736 0.385870
v 2.375988 0.399217 -0.638585
v -1.799796 0.292736 -0.638585
v 2.504173 0.500000 0.638585
v 0.177642 0.409029 -0.638585
v 1.155416 0.423495 -0.652211
v -1.630363 0.233856 0.400064
v 2.133151 0.415200 0.630029
v 0.093607 0.376433 -0.301899
v 0.995166 0.372457 -0.256950
v -1.583213 0.233856 -0.458777
v 1.090365 0.371910 -0.252246
v 2.477190 0.452976 0.635085
v 2.412279 0.418844 0.633438
v 2.095152 0.452976 1.193838
v 2.040175 0.418844 1.160580
v 1.090365 -0.013588 0.454652
v 1.090365 -0.000000 0.459492
v 1.090365 -0.021986 0.441979
v 1.090365 0.013588 0.454652
v 1.090365 -0.021986 0.426315
v 1.090365 -0.013588 0.413643
v 1.090365 -0.000000 0.408803
v 1.090365 0.021986 0.441979
v 1.090365 0.013588 0.413643
v 1.090365 0.021986 0.426315
vn 0.0000 1.0000 -0.0000
vn -0.1779 0.9010 -0.3958
vn -0.8036 0.5933 0.0479
vn -0.6864 0.6585 0.3085
vn -0.8712 -0.1461 0.4687
vn -0.9000 -0.1622 0.4045
vn -0.2615 -0.8000 0.5399
vn -0.6469 -0.6719 0.3606
vn 0.5774 -0.8000 0.1629
vn 0.6992 -0.6719 -0.2444
vn 0.9289 -0.1461 -0.3403
vn 0.9000 -0.1622 -0.4045
vn 0.5693 0.5933 -0.5691
vn 0.6864 0.6585 -0.3085
vn -0.3205 0.6235 -0.7131
vn -0.8975 0.4106 -0.1611
vn -0.8481 -0.1011 0.5202
vn -0.1349 -0.5536 0.8218
vn 0.7041 -0.5536 0.4447
vn 0.9520 -0.1011 -0.2889
vn 0.4754 0.4106 -0.7781
vn -0.3997 0.2225 -0.8892
vn -0.9496 0.1465 -0.2771
vn -0.8352 -0.0361 0.5487
vn -0.4366 -0.2048 0.8761
vn 0.9450 -0.2048 0.2552
vn 0.9649 -0.0361 -0.2603
vn 0.4233 0.1465 -0.8941
vn -0.3997 -0.2225 -0.8892
vn -0.9496 -0.1465 -0.2771
vn -0.8352 0.0361 0.5487
vn -0.4366 0.2048 0.8761
vn 0.9450 0.2048 0.2552
vn 0.9649 0.0361 -0.2603
vn 0.4233 -0.1465 -0.8941
vn -0.3205 -0.6235 -0.7131
vn -0.8975 -0.4106 -0.1611
vn -0.8481 0.1011 0.5202
vn -0.1349 0.5536 0.8218
vn 0.7041 0.5536 0.4447
vn 0.9520 0.1011 -0.2889
vn 0.4754 -0.4106 -0.7781
vn -0.1779 -0.9010 -0.3958
vn -0.8036 -0.5933 0.0479
vn -0.8712 0.1461 0.4687
vn -0.2615 0.8000 0.5399
vn 0.5774 0.8000 0.1629
vn 0.9289 0.1461 -0.3403
vn 0.5693 -0.5933 -0.5691
vn -0.0000 -1.0000 -0.0000
vn -0.6864 -0.6585 0.3085
vn -0.9000 0.1622 0.4045
vn -0.6469 0.6719 0.3606
vn 0.6992 0.6719 -0.2444
vn 0.9000 0.1622 -0.4045
vn 0.6864 -0.6585 -0.3085
vn 0.1779 -0.9010 0.3958
vn -0.5693 -0.5933 0.5691
vn -0.9289 0.1461 0.3403
vn -0.8389 0.5441 0.0167
vn 0.9121 -0.0000 -0.4099
vn 0.5694 0.5441 -0.6162
vn 0.8712 0.1461 -0.4687
vn 0.8036 -0.5933 -0.0479
vn 0.3205 -0.6235 0.7131
vn -0.4754 -0.4106 0.7781
vn -0.9520 0.1011 0.2889
vn -0.7041 0.5536 -0.4447
vn 0.1349 0.5536 -0.8218
vn 0.8481 0.1011 -0.5202
vn 0.8975 -0.4106 0.1611
vn 0.3997 -0.2225 0.8892
vn -0.4233 -0.1465 0.8941
vn -0.9649 0.0361 0.2603
vn -0.7744 0.1976 -0.6011
vn 0.0646 0.1976 -0.9782
vn 0.8352 0.0361 -0.5487
vn 0.9496 -0.1465 0.2771
vn 0.3997 0.2225 0.8892
vn -0.4233 0.1465 0.8941
vn -0.9649 -0.0361 0.2603
vn -0.7744 -0.1976 -0.6011
vn 0.0646 -0.1976 -0.9782
vn 0.8352 -0.0361 -0.5487
vn 0.9496 0.1465 0.2771
vn 0.3205 0.6235 0.7131
vn -0.4754 0.4106 0.7781
vn -0.9520 -0.1011 0.2889
vn -0.7041 -0.5536 -0.4447
vn 0.1349 -0.5536 -0.8218
vn 0.8481 -0.1011 -0.5202
vn 0.8975 0.4106 0.1611
vn 0.1779 0.9010 0.3958
vn -0.5693 0.5933 0.5691
vn -0.9289 -0.1461 0.3403
vn -0.8389 -0.5441 0.0167
vn 0.5694 -0.5441 -0.6162
vn 0.8712 -0.1461 -0.4687
vn 0.8036 0.5933 -0.0479
vn 0.4099 -0.0000 0.9121
vn -0.0087 -0.9998 -0.0193
vn -0.0618 -0.9886 -0.1375
vn -0.9121 -0.0000 0.4099
vn -0.0087 0.9998 -0.0193
vn -0.0618 0.9886 -0.1375
vn -0.4099 0.0000 -0.9121
vn -0.4065 0.1298 -0.9044
vn 0.3316 0.5878 0.7379
vn 0.3199 0.6253 0.7118
vn -0.4065 -0.1298 -0.9044
vn -0.2103 0.8584 -0.4680
vn -0.3562 0.4948 -0.7926
vn -0.3562 -0.4948 -0.7926
vn -0.2103 -0.8584 -0.4680
vn -0.3316 -0.5878 -0.7379
vn -0.3442 -0.5433 -0.7657
vn -0.1267 -0.9511 -0.2819
vn -0.1580 -0.9227 -0.3515
vn -0.3316 0.5878 -0.7379
vn -0.1267 0.9511 -0.2819
vn -0.1580 0.9227 -0.3515
vn -0.3442 0.5433 -0.7657
vn 0.1267 0.9511 0.2819
vn 0.0960 0.9722 0.2136
vn 0.3316 -0.5878 0.7379
vn 0.1267 -0.9511 0.2819
vn 0.0960 -0.9722 0.2136
vn 0.3199 -0.6253 0.7118
vn 0.0000 0.0000 1.0000
vn -0.1050 -0.9916 -0.0752
vn -0.1024 -0.9918 -0.0769
vn -0.1507 -0.9875 -0.0460
vn -1.0000 0.0000 0.0000
vn -0.0162 0.9924 -0.1219
vn -0.0152 0.9924 -0.1223
vn 0.3876 0.9113 -0.1388
vn 0.4116 0.9009 -0.1381
vn 0.8605 -0.4897 -0.1402
vn 0.8577 -0.4949 -0.1397
vn 0.3876 -0.9113 -0.1388
vn 0.4116 -0.9009 -0.1381
vn -0.0008 0.0006 -1.0000
vn -0.0052 -0.0010 -1.0000
vn 0.0122 0.0087 -0.9999
vn 0.0120 0.0055 -0.9999
vn 0.0149 -0.9967 0.0794
vn 0.1016 -0.9943 0.0319
vn 0.1033 -0.9942 0.0313
vn 0.0146 -0.9967 0.0798
vn 0.9985 -0.0003 0.0548
vn 0.9985 0.0000 0.0548
vn -0.0008 -0.0006 -1.0000
vn 0.0031 0.0000 -1.0000
vn 0.0120 0.0000 -0.9999
vn 0.0120 -0.0055 -0.9999
vn 0.8605 0.4897 -0.1402
vn 0.8577 0.4949 -0.1397
vn 0.9872 0.0000 -0.1595
vn 0.0000 -0.0000 -1.0000
vn -0.0081 0.0000 -1.0000
vn -0.0070 0.0030 -1.0000
vn 0.9985 0.0003 0.0548
vn 0.1663 -0.9860 0.0091
vn -0.0060 -0.0026 -1.0000
vn -0.0070 -0.0030 -1.0000
vn -0.1507 0.9875 -0.0460
vn -0.1024 0.9918 -0.0769
vn -0.1050 0.9916 -0.0752
vn -0.0162 -0.9924 -0.1219
vn -0.0152 -0.9924 -0.1223
vn 0.1663 0.9860 0.0091
vn 0.1016 0.9943 0.0319
vn 0.1033 0.9942 0.0313
vn -0.4848 0.7977 0.3586
vn -0.6817 0.5774 0.4494
vn -0.6115 0.5198 0.5965
vn -0.2307 0.6775 0.6984
vn -0.0726 0.0300 0.9969
vn -0.0877 0.0150 0.9960
vn -0.0863 0.0125 0.9962
vn -0.0710 0.0299 0.9970
vn -0.0835 0.0030 0.9965
vn -0.0877 -0.0150 0.9960
vn -0.0863 -0.0125 0.9962
vn -0.0813 0.0030 0.9967
vn -0.0322 -0.0257 0.9992
vn -0.0153 -0.0213 0.9997
vn -0.0203 -0.0281 0.9994
vn 0.7495 0.4159 0.5151
vn 0.6378 0.6411 0.4269
vn 0.7262 0.4758 0.4962
vn -0.0835 -0.0030 0.9965
vn -0.0876 0.0000 0.9962
vn -0.0813 -0.0030 0.9967
vn -0.7482 -0.3965 -0.5320
vn -0.8099 0.0000 -0.5865
vn -0.7243 -0.4631 -0.5108
vn -0.0322 0.0257 0.9992
vn -0.0726 -0.0300 0.9969
vn -0.0710 -0.0299 0.9970
vn -0.0153 0.0213 0.9997
vn -0.0203 0.0281 0.9994
vn -0.0497 0.0385 0.9980
vn -0.0514 0.0385 0.9979
vn -0.0535 0.0383 0.9978
vn -0.0495 0.0383 0.9980
vn -0.0497 -0.0385 0.9980
vn -0.0480 0.0000 0.9988
vn -0.0456 0.0000 0.9990
vn -0.0495 -0.0383 0.9980
vn -0.0911 -0.0217 0.9956
vn -0.0874 0.0000 0.9962
vn -0.0691 0.0000 0.9976
vn -0.0708 -0.0301 0.9970
vn -0.0911 0.0217 0.9956
vn -0.0952 0.0216 0.9952
vn -0.0709 0.0307 0.9970
vn -0.0708 0.0301 0.9970
vn -0.6817 -0.5774 0.4494
vn -0.4848 -0.7977 0.3586
vn -0.2307 -0.6775 0.6984
vn -0.6115 -0.5198 0.5965
vn -0.0089 -0.9944 0.1055
vn 0.0149 0.9967 0.0794
vn -0.0089 0.9944 0.1055
vn 0.0146 0.9967 0.0798
vn -0.0576 0.0582 0.9966
vn 0.3343 0.9362 0.1081
vn 0.3343 -0.9362 0.1081
vn -0.0576 -0.0582 0.9966
vn -0.0587 0.0308 0.9978
vn -0.0231 0.0311 0.9992
vn -0.0484 0.0347 0.9982
vn -0.0587 -0.0308 0.9978
vn -0.0708 0.0000 0.9975
vn -0.0484 -0.0347 0.9982
vn -0.0193 0.0157 0.9997
vn -0.0222 -0.0000 0.9998
vn -0.0151 0.0153 0.9998
vn -0.0193 -0.0157 0.9997
vn -0.0110 -0.0191 0.9998
vn -0.0151 -0.0153 0.9998
vn -0.0231 -0.0311 0.9992
vn -0.0110 0.0191 0.9998
vn -0.4400 0.1007 0.8923
vn -0.3347 0.1964 0.9216
vn -0.4361 0.1045 0.8938
vn -0.4400 -0.1007 0.8923
vn -0.5319 0.0000 0.8468
vn -0.4361 -0.1045 0.8938
vn -0.7638 0.4042 -0.5032
vn -0.7482 0.3965 -0.5320
vn -0.6353 0.6375 -0.4359
vn -0.7243 0.4631 -0.5108
vn 0.7495 -0.4159 0.5151
vn 0.8205 0.0000 0.5716
vn 0.7262 -0.4758 0.4962
vn -0.7638 -0.4042 -0.5032
vn 0.6378 -0.6411 0.4269
vn -0.0060 0.0026 -1.0000
vn -0.0052 0.0010 -1.0000
vn 0.0122 -0.0087 -0.9999
vn -0.3347 -0.1964 0.9216
vn -0.0709 -0.0307 0.9970
vn -0.0514 -0.0385 0.9979
vn -0.0952 -0.0216 0.9952
vn -0.0535 -0.0383 0.9978
vn -0.6353 -0.6375 -0.4359
usemtl None
s 1
f 23//22 30//23 31//24 24//25
f 24//25 31//24 32//26 25//27
f 25//27 32//26 33//28 26//29
f 26//29 33//28 34//30 27//31
f 27//31 34//30 35//32 28//33
f 28//33 35//32 36//34 29//35
f 29//35 36//34 30//23 23//22
f 30//23 37//36 38//37 31//24
f 31//24 38//37 39//38 32//26
f 32//26 39//38 40//39 33//28
f 33//28 40//39 41//40 34//30
f 34//30 41//40 42//41 35//32
f 35//32 42//41 43//42 36//34
f 36//34 43//42 37//36 30//23
f 37//36 44//43 45//44 38//37
f 38//37 45//44 46//45 39//38
f 39//38 46//45 47//46 40//39
f 40//39 47//46 48//47 41//40
f 41//40 48//47 49//48 42//41
f 42//41 49//48 50//49 43//42
f 43//42 50//49 44//43 37//36
f 44//43 51//50 52//51 45//44
f 45//44 52//51 53//52 46//45
f 46//45 53//52 54//53 47//46
f 48//47 55//54 56//55 49//48
f 49//48 56//55 57//56 50//49
f 50//49 57//56 51//50 44//43
f 51//50 58//57 59//58 52//51
f 52//51 59//58 60//59 53//52
f 53//52 60//59 61//60 54//53
f 54//53 61//60 62//61 55//54
f 55//54 62//61 63//62 56//55
f 56//55 63//62 64//63 57//56
f 57//56 64//63 58//57 51//50
f 58//57 65//64 66//65 59//58
f 59//58 66//65 67//66 60//59
f 60//59 67//66 68//67 61//60
f 61//60 68//67 69//68 62//61
f 62//61 69//68 70//69 63//62
f 63//62 70//69 71//70 64//63
f 64//63 71//70 65//64 58//57
f 65//64 72//71 73//72 66//65
f 66//65 73//72 74//73 67//66
f 67//66 74//73 75//74 68//67
f 68//67 75//74 76//75 69//68
f 69//68 76//75 77//76 70//69
f 70//69 77//76 78//77 71//70
f 71//70 78//77 72//71 65//64
f 72//71 79//78 80//79 73//72
f 73//72 80//79 81//80 74//73
f 74//73 81//80 82//81 75//74
f 143//82 152//82 148//82 83//83 76//75
f 76//75 83//83 84//84 77//76
f 77//76 84//84 85//85 78//77
f 78//77 85//85 79//78 72//71
f 79//78 86//86 87//87 80//79
f 80//79 87//87 88//88 81//80
f 81//80 88//88 89//89 82//81
f 82//81 89//89 90//90 83//83
f 83//83 90//90 91//91 84//84
f 84//84 91//91 92//92 85//85
f 85//85 92//92 86//86 79//78
f 86//86 93//93 94//94 87//87
f 87//87 94//94 95//95 88//88
f 88//88 95//95 96//96 89//89
f 89//89 96//96 97//97 90//90
f 90//90 97//97 98//98 91//91
f 91//91 98//98 99//99 92//92
f 92//92 99//99 93//93 86//86
f 93//93 100//100 101//101 94//94
f 94//94 101//101 102//102 95//95
f 95//95 102//102 103//103 96//96
f 96//96 103//103 104//104 97//97
f 97//97 104//104 105//105 98//98
f 98//98 105//105 106//106 99//99
f 99//99 106//106 100//100 93//93
f 100//100 107//107 108//108 101//101
f 101//101 108//108 109//109 102//102
f 102//102 109//109 110//110 103//103
f 103//103 110//110 111//111 104//104
f 104//104 111//111 112//112 105//105
f 105//105 112//112 113//113 106//106
f 106//106 113//113 107//107 100//100
f 107//107 114//114 115//115 108//108
f 108//108 115//115 116//116 109//109
f 109//109 116//116 117//117 110//110
f 110//110 117//117 118//118 111//111
f 111//111 118//118 119//119 112//112
f 112//112 119//119 120//120 113//113
f 113//113 120//120 114//114 107//107
f 114//114 23//22 24//25 115//115
f 115//115 24//25 25//27 116//116
f 116//116 25//27 26//29 117//117
f 55//54 48//47 137//82 151//82 144//82
f 118//118 27//31 28//33 119//119
f 119//119 28//33 29//35 120//120
f 120//120 29//35 23//22 114//114
f 148//121 124//121 82//121 83//121
f 27//31 118//118 149//82 150//82 138//82
f 54//122 55//122 144//123 131//123
f 123//124 128//124 127//124 134//124 133//124 124//124
f 47//46 54//53 131//124 134//124 127//124 126//124
f 48//125 47//125 126//126 137//126
f 118//121 117//121 123//121 149//121
f 149//121 123//121 124//121 148//121
f 26//127 27//127 138//128 125//128
f 124//124 133//124 132//124 75//74 82//81
f 122//129 153//121 261//121 263//130
f 132//131 143//131 76//127 75//127
f 125//124 129//124 130//124 126//124 127//124 128//124
f 131//124 135//124 136//124 132//124 133//124 134//124
f 137//82 141//82 142//82 138//82 150//82 151//82
f 143//82 146//82 147//82 144//82 151//82 152//82
f 137//126 126//126 130//132 141//132
f 141//132 130//132 129//133 142//133
f 142//133 129//133 125//128 138//128
f 143//131 132//131 136//134 146//134
f 146//134 136//134 135//135 147//135
f 147//135 135//135 131//123 144//123
f 117//117 26//29 125//124 128//124 123//124
f 121//82 153//82 122//82 149//82 148//82
f 139//82 154//82 140//82 151//82 150//82
f 122//82 155//82 139//82 150//82 149//82
f 145//82 156//82 121//82 148//82 152//82
f 140//82 157//82 145//82 152//82 151//82
f 157//136 140//127 266//127 265//137
f 145//138 157//136 265//137 264//139
f 154//140 139//141 269//142 268//143
f 140//127 154//140 268//143 266//127
f 155//144 122//129 263//130 267//145
f 139//141 155//144 267//145 269//142
f 121//146 156//147 262//148 260//149
f 156//147 145//138 264//139 262//148
f 153//121 121//146 260//149 261//121
f 160//150 158//150 207//150 208//150
f 159//150 160//150 208//150 211//150
f 173//151 183//152 184//153 163//153
f 246//154 244//154 186//154 167//154
f 182//155 187//156 218//157 165//158
f 231//159 229//160 217//161 161//162
f 249//163 182//164 165//165 245//166
f 179//167 176//168 196//169 198//170
f 250//171 170//172 194//172 254//171
f 233//173 180//174 171//175 231//176
f 245//177 247//178 216//179 171//179
f 228//154 230//154 185//154 169//154
f 228//180 169//180 177//181 232//182
f 235//183 164//183 200//183 238//183
f 176//168 168//184 201//184 196//169
f 246//180 167//180 175//185 248//186
f 167//187 186//187 192//188 175//189
f 178//190 191//191 183//152 173//151
f 161//162 217//161 191//191 178//190
f 232//182 177//181 180//174 233//173
f 164//192 174//193 197//194 200//192
f 220//195 234//196 219//196 208//196 207//196 209//197 203//198
f 248//186 175//185 182//164 249//163
f 175//189 192//188 187//156 182//155
f 174//199 164//200 184//201 183//202
f 250//203 168//204 186//205 244//206
f 179//207 221//208 218//209 187//207
f 256//210 188//211 225//211 258//212
f 235//213 170//214 185//214 230//215
f 257//216 172//217 223//217 259//218
f 181//219 174//199 183//202 191//219
f 168//204 176//220 192//221 186//205
f 176//220 179//207 187//207 192//221
f 220//222 181//219 191//219 217//223
f 237//224 199//225 206//226 239//227
f 253//228 193//229 204//230 255//231
f 254//232 194//233 195//234 252//235
f 238//236 200//237 197//238 236//239
f 252//235 195//234 193//229 253//228
f 236//239 197//238 199//225 237//224
f 219//240 251//240 221//241 202//242 214//243 211//240 208//240
f 221//241 179//167 198//170 215//244 212//244 213//244 202//242
f 181//245 220//195 203//198 210//246 205//246 206//246 199//247
f 174//193 181//245 199//247 197//194
f 209//197 210//248 203//198
f 212//154 215//154 255//154 204//154 266//154 268//154 269//154 267//154 263//154 261//154 160//154 159//154
f 204//154 239//154 206//154 205//154 158//154 160//154 261//154 260//154 262//154 264//154 265//154 266//154
f 211//249 214//249 213//249 212//249 159//249
f 205//250 210//250 209//250 207//250 158//250
f 213//251 214//243 202//242
f 240//252 190//253 217//223 229//254
f 256//255 189//256 216//256 247//257
f 241//258 172//259 219//259 234//260
f 257//261 166//262 221//208 251//263
f 166//262 188//264 218//209 221//208
f 190//253 162//265 220//222 217//223
f 243//266 226//267 224//267 242//268
f 259//269 223//270 222//270 258//271
f 188//272 166//272 227//272 225//272
f 241//273 162//274 226//274 243//275
f 240//276 189//277 222//277 242//278
f 162//279 190//279 224//279 226//279
f 190//280 240//276 242//278 224//280
f 172//217 241//273 243//275 223//217
f 223//270 243//266 242//268 222//270
f 162//265 241//258 234//260 220//222
f 189//256 240//252 229//254 216//256
f 195//234 236//239 237//224 193//229
f 194//233 238//236 236//239 195//234
f 193//229 237//224 239//227 204//230
f 164//200 235//213 230//215 184//201
f 173//281 232//182 233//173 178//282
f 170//172 235//183 238//183 194//172
f 163//180 228//180 232//182 173//281
f 163//154 184//154 230//154 228//154
f 178//282 233//173 231//176 161//283
f 171//179 216//179 229//160 231//159
f 227//284 259//269 258//271 225//284
f 172//259 257//261 251//263 219//259
f 188//264 256//255 247//257 218//209
f 196//285 252//235 253//228 198//286
f 201//287 254//232 252//235 196//285
f 198//286 253//228 255//231 215//288
f 166//289 257//216 259//218 227//289
f 189//277 256//210 258//212 222//277
f 170//214 250//203 244//206 185//214
f 177//181 248//186 249//163 180//174
f 169//180 246//180 248//186 177//181
f 165//158 218//157 247//178 245//177
f 168//171 250//171 254//171 201//171
f 180//174 249//163 245//166 171//175
f 169//154 185//154 244//154 246//154
