# Blender v2.79 (sub 0) OBJ File: 'bridge4.blend'
# www.blender.org
mtllib bridge4.mtl
o Cube.000_Cube.002
v -0.349687 0.011458 -9.654453
v -0.349687 0.571613 -9.654453
v 1.650313 0.011458 -9.654453
v 1.650313 0.571613 -9.654453
v 0.050313 0.571613 -9.654453
v 0.450313 0.571613 -9.654453
v 0.850313 0.571613 -9.654453
v 1.250313 0.571613 -9.654453
v 1.650313 0.571613 -8.769930
v -0.349687 0.571613 -8.769930
v -0.349687 1.695247 -7.885406
v -0.349687 1.695247 -7.000882
v 1.650313 1.695247 -7.000882
v 1.650313 1.695247 -7.885406
v 1.250313 0.571613 -8.769930
v 0.850313 0.571613 -8.769930
v 0.450313 0.571613 -8.769930
v 0.050313 0.571613 -8.769930
v 1.650313 1.143870 -8.769930
v 1.650313 1.143870 -7.885406
v -0.349687 1.143870 -7.885406
v -0.349687 1.143870 -8.769930
v 1.650313 2.207185 -7.000882
v 1.650313 2.207185 -6.116358
v 0.050313 1.143870 -7.885406
v 1.250313 1.143870 -7.885406
v 0.850313 1.143870 -7.885406
v 0.450313 1.143870 -7.885406
v 0.050313 1.143870 -8.769930
v 1.250313 1.143870 -8.769930
v 0.850313 1.143870 -8.769930
v 0.450313 1.143870 -8.769930
v 1.650313 2.769351 -6.116358
v 0.050313 1.695247 -7.000882
v 1.250313 1.695247 -7.000882
v 0.850313 1.695247 -7.000882
v 0.450313 1.695247 -7.000882
v 0.050313 1.695247 -7.885406
v 1.250313 1.695247 -7.885406
v 0.850313 1.695247 -7.885406
v 0.450313 1.695247 -7.885406
v -0.349687 2.207185 -6.116358
v -0.349687 2.207185 -7.000882
v 0.050313 2.207185 -6.116358
v 1.250313 2.207185 -6.116358
v 0.850313 2.207185 -6.116358
v 0.450313 2.207185 -6.116358
v 0.050313 2.207185 -7.000882
v 1.250313 2.207185 -7.000882
v 0.850313 2.207185 -7.000882
v 0.450313 2.207185 -7.000882
v -0.349687 2.769351 -6.116358
v 0.050313 2.769351 -6.116358
v 1.250313 2.769351 -6.116358
v 0.850313 2.769351 -6.116358
v 0.450313 2.769351 -6.116358
v 1.650313 0.011458 10.399181
v 1.650313 0.571613 10.399181
v -0.349687 0.011458 10.399181
v -0.349687 0.571613 10.399181
v 1.250313 0.571613 10.399181
v 0.850313 0.571613 10.399181
v 0.450313 0.571613 10.399181
v 0.050313 0.571613 10.399181
v -0.349687 0.571613 9.514659
v 1.650313 0.571613 9.514659
v 1.650313 1.695247 8.630135
v 1.650313 1.695247 7.745611
v -0.349687 1.695247 7.745612
v -0.349687 1.695247 8.630135
v 0.050313 0.571613 9.514659
v 0.450313 0.571613 9.514659
v 0.850313 0.571613 9.514659
v 1.250313 0.571613 9.514659
v -0.349687 1.143870 9.514659
v -0.349687 1.143870 8.630135
v 1.650313 1.143870 8.630135
v 1.650313 1.143870 9.514659
v -0.349687 2.207185 7.745612
v -0.349687 2.207185 6.861087
v 1.250313 1.143870 8.630135
v 0.050313 1.143870 8.630135
v 0.450313 1.143870 8.630135
v 0.850313 1.143870 8.630135
v 1.250313 1.143870 9.514659
v 0.050313 1.143870 9.514659
v 0.450313 1.143870 9.514659
v 0.850313 1.143870 9.514659
v -0.349687 2.769351 6.861087
v 1.250313 1.695247 7.745611
v 0.050313 1.695247 7.745612
v 0.450313 1.695247 7.745611
v 0.850313 1.695247 7.745611
v 1.250313 1.695247 8.630135
v 0.050313 1.695247 8.630135
v 0.450313 1.695247 8.630135
v 0.850313 1.695247 8.630135
v 1.650313 2.207185 6.861087
v 1.650313 2.207185 7.745611
v 1.250313 2.207185 6.861087
v 0.050313 2.207185 6.861087
v 0.450313 2.207185 6.861087
v 0.850313 2.207185 6.861087
v 1.250313 2.207185 7.745611
v 0.050313 2.207185 7.745612
v 0.450313 2.207185 7.745611
v 0.850313 2.207185 7.745611
v 1.650313 2.769351 6.861087
v 1.250313 2.769351 6.861087
v 0.050313 2.769351 6.861087
v 0.450313 2.769351 6.861087
v 0.850313 2.769351 6.861087
v 3.364466 -0.549704 -5.333501
v 3.364466 -0.549704 6.090607
v -2.115705 -0.549704 6.090605
v -2.115703 -0.549704 -5.333503
v -1.356009 6.191804 -5.333501
v -1.356009 3.029127 -5.333501
v 2.654387 3.029127 -5.333499
v 3.364467 6.381877 -5.333498
v -2.115704 6.381877 -5.333501
v 0.624382 8.065500 -5.333499
v 2.654388 6.191804 -5.333498
v 0.649189 7.423882 -5.333499
v 0.649189 7.423882 -5.333499
v 0.649189 7.423882 -5.333499
v 3.364466 6.381877 0.378556
v 3.364465 6.381877 6.090610
v -1.356010 6.191804 6.090605
v -2.115705 6.381877 6.090604
v 2.654387 6.191804 6.090609
v 2.654387 3.029127 6.090608
v -1.356010 3.029127 6.090604
v 0.649188 7.423882 6.090607
v 0.649188 7.423882 6.090607
v 0.624380 8.065500 6.090607
v 0.649188 7.423882 6.090607
v -2.115705 6.381877 0.378552
v 0.624381 8.065500 0.378554
v 0.624381 8.065500 0.378554
v 0.624380 8.065500 6.090607
v 0.624382 8.065500 -5.333499
v 2.654387 6.191804 0.145325
v -1.356010 6.191804 0.145319
v 0.649189 7.423882 0.145322
v -2.115704 2.576908 1.359090
v 3.364466 2.576909 1.359090
v -2.115704 2.637211 0.472016
v 3.364466 2.637212 0.472016
v -2.115704 2.576907 -0.415057
v 3.364466 2.576907 -0.415057
v -2.115704 2.398315 2.212073
v 3.364466 2.398316 2.212073
v -2.115704 2.108296 2.998188
v 3.364466 2.108297 2.998188
v -2.115705 1.242414 4.252699
v 3.364466 1.242414 4.252699
v -2.115704 1.717996 3.687222
v 3.364466 1.717996 3.687222
v -2.115704 0.111083 4.931636
v 3.364466 0.111083 4.931636
v -2.115705 0.699825 4.672886
v 3.364466 0.699826 4.672886
v -2.115704 -0.501189 5.019006
v 3.364466 -0.501189 5.019006
v -2.115704 -0.549704 5.012083
v 3.364466 -0.549704 5.012083
v -2.115704 2.398313 -1.268039
v 3.364466 2.398314 -1.268039
v -2.115704 2.108293 -2.054153
v 3.364466 2.108293 -2.054153
v -2.115704 1.717992 -2.743187
v 3.364466 1.717992 -2.743187
v -2.115703 1.242408 -3.308662
v 3.364466 1.242409 -3.308662
v -2.115703 0.699819 -3.728848
v 3.364466 0.699820 -3.728848
v -2.115703 0.111076 -3.987596
v 3.364466 0.111077 -3.987596
v -2.115703 -0.501191 -4.074964
v -2.115703 -0.549704 -4.068040
v 3.364466 -0.501190 -4.074964
v 3.364466 -0.549704 -4.068041
v 3.364466 6.004764 2.157307
v -2.115705 6.004764 2.157307
v -1.356010 6.004764 2.157307
v 2.654388 6.004764 2.157307
v 3.364466 6.004764 3.545250
v -2.115705 6.004764 3.545250
v -1.356010 6.004764 3.545250
v 2.654388 6.004764 3.545250
v 3.364466 6.004764 2.851279
v -2.115705 6.004764 2.851279
v -1.356010 6.004764 2.851279
v 2.654388 6.004764 2.851279
v -1.356009 3.651800 1.463336
v 2.654387 3.651800 1.463336
v 3.364466 4.025049 1.463336
v 3.364466 3.651800 1.463336
v -2.115705 3.651800 1.463336
v -1.356009 3.651800 0.769364
v 2.654387 3.651800 0.769364
v 3.364467 3.651800 0.769364
v -2.115705 3.651800 0.769364
v -1.356010 3.651800 4.239222
v 2.654387 3.651800 4.239222
v 3.364467 3.651800 4.239222
v -2.115705 3.651800 4.239222
v -1.356010 3.651800 3.545250
v 2.654387 3.651800 3.545250
v 3.364465 3.651800 3.545250
v -2.115705 3.651800 3.545250
v 3.364466 6.004764 4.239222
v -2.115705 6.004764 4.239222
v -1.356010 6.004764 4.239222
v 2.654388 6.004764 4.239222
v 3.364465 6.004764 4.933193
v -2.115705 6.004764 4.933193
v -1.356010 6.004764 4.933193
v 2.654387 6.004764 4.933193
v -2.115705 3.651800 4.933193
v 3.364466 3.651800 4.933193
v -2.115705 5.193123 4.933193
v -1.356010 3.651800 4.933193
v 2.654388 3.651800 4.933193
v -2.115705 3.651800 5.627165
v 3.364466 3.651800 5.627165
v -1.356010 3.651800 5.627165
v 2.654388 3.651800 5.627165
v 3.364465 6.004764 5.627165
v -2.115705 5.085930 5.627165
v -2.115705 6.004764 5.627165
v -1.356010 6.004764 5.627165
v 2.654387 6.004764 5.627165
v 3.364466 3.874875 2.157307
v -1.356010 3.651800 2.851279
v 2.654387 3.651800 2.851279
v 3.364466 3.651800 2.851279
v -2.115705 3.651800 2.851279
v -1.356009 3.651800 2.157307
v 2.654387 3.651800 2.157307
v 3.364466 3.651800 2.157307
v -2.115705 3.651800 2.157307
v 3.364467 6.004764 1.463336
v -2.115705 6.004764 1.463336
v -1.356010 6.004764 1.463336
v 2.654388 6.004764 1.463336
v -1.356010 4.013995 4.239222
v -2.115705 4.480360 4.239222
v 3.364467 6.004764 0.769364
v -2.115705 6.004764 0.769364
v -1.356010 6.004764 0.769364
v 2.654388 6.004764 0.769364
v 2.654387 5.859838 0.769364
v -2.115704 4.865333 0.769364
v -1.356009 3.651800 0.075392
v 2.654387 3.651800 0.075392
v -2.115704 3.651800 0.075392
v 3.364466 3.651800 0.075392
v -1.356010 6.004764 0.075392
v -2.115705 6.004764 0.075392
v 2.654387 6.004764 0.075392
v 3.364466 6.004764 0.075392
v -2.115704 4.928374 0.075392
v -1.356009 3.651800 -0.618579
v 2.654387 3.651800 -0.618579
v -2.115704 3.651800 -0.618579
v 3.364466 3.651800 -0.618579
v -1.356010 6.004764 -0.618579
v -2.115705 6.004764 -0.618579
v 2.654388 6.004764 -0.618579
v 3.364466 6.004764 -0.618579
v -1.356009 3.651800 -2.006522
v -2.115704 3.651800 -2.006522
v 2.654387 3.651800 -2.006522
v 3.364466 3.651800 -2.006522
v -1.356009 3.651800 -1.312551
v -2.115704 3.651800 -1.312551
v 2.654387 3.651800 -1.312551
v 3.364466 3.651800 -1.312551
v -1.356010 6.004764 -1.312551
v -2.115705 6.004764 -1.312551
v 2.654388 6.004764 -1.312551
v 3.364467 6.004764 -1.312551
v -1.356010 6.004764 -2.006522
v -2.115705 6.004764 -2.006522
v 2.654388 6.004764 -2.006522
v 3.364467 6.004764 -2.006522
v -1.356009 3.651800 -2.700494
v -2.115704 3.651800 -2.700494
v 2.654387 3.651800 -2.700494
v 3.364467 3.651800 -2.700494
v -1.356009 3.651800 -3.394465
v -2.115704 3.651800 -3.394465
v 2.654387 3.651800 -3.394465
v 3.364466 3.651800 -3.394465
v -1.356010 6.004764 -2.700494
v -2.115705 6.004764 -2.700494
v 2.654388 6.004764 -2.700494
v 3.364467 6.004764 -2.700494
v -1.356010 6.004764 -3.394465
v -2.115705 6.004764 -3.394465
v 2.654388 6.004764 -3.394465
v 3.364467 6.004764 -3.394465
v -1.356010 6.004764 -4.088437
v -2.115704 4.759333 -4.088437
v -2.115704 6.004764 -4.088436
v 2.654388 6.004764 -4.088437
v 3.364467 6.004764 -4.088437
v -1.356010 6.004764 -4.782408
v -2.115704 6.004764 -4.782408
v 2.654388 6.004764 -4.782408
v 3.364467 5.389633 -4.782408
v 3.364467 6.004764 -4.782408
v -1.356009 3.651800 -4.088437
v -2.115704 3.651800 -4.088437
v 2.654387 3.651800 -4.088437
v 3.364467 3.651800 -4.088437
v -2.115704 4.481903 -3.394465
v -2.115704 3.651800 -4.782408
v -1.356009 3.651800 -4.782408
v -2.115704 4.983088 -4.782408
v 3.364467 3.651800 -4.782408
v 2.654388 3.651800 -4.782408
v 1.650313 0.749882 6.090606
v -0.349687 0.011458 6.090606
v 1.650313 2.769351 6.090607
v -0.349687 2.769351 6.090605
v 1.650313 0.011458 6.090607
v -0.349687 2.769351 -5.333501
v 1.650313 2.769351 -5.333500
v 1.650313 0.749882 -5.333501
v 1.650313 0.011458 -5.333501
v -0.349687 0.011458 -5.333502
vn 0.0000 0.0000 -1.0000
vn 0.0000 -1.0000 -0.0000
vn 0.0000 1.0000 0.0000
vn 1.0000 0.0000 -0.0000
vn 0.0000 0.0000 1.0000
vn -1.0000 0.0000 0.0000
vn 0.5235 0.8520 0.0000
vn -0.5235 0.8520 -0.0000
vn -0.5235 -0.8520 -0.0000
vn 0.5235 -0.8520 0.0000
vn 0.0000 -0.8701 -0.4929
vn 0.0000 -0.7653 0.6437
vn 0.0000 -0.9977 0.0678
vn 0.0000 -0.4024 -0.9155
vn 0.0000 -0.8701 0.4929
vn 0.0000 -0.9788 0.2049
vn 0.0000 -0.6123 0.7906
vn 0.0000 0.1413 -0.9900
vn 0.0000 -0.9788 -0.2049
vn 0.0000 -0.7653 -0.6437
vn -0.0000 0.1413 0.9900
vn -0.0000 -0.6123 -0.7906
vn -0.0000 -0.1413 0.9900
vn 0.0000 -0.9382 -0.3461
vn 0.0000 -0.1413 -0.9900
vn 0.0000 -0.9382 0.3461
vn 0.0000 -0.4023 0.9155
vn 0.0000 -0.9977 -0.0678
usemtl Material
s off
f 1//1 2//1 5//1 6//1 7//1 8//1 4//1 3//1
f 3//2 333//2 334//2 1//2
f 5//3 2//3 10//3 18//3 17//3 16//3 15//3 9//3 4//3 8//3 7//3 6//3
f 29//3 22//3 21//3 25//3 28//3 27//3 26//3 20//3 19//3 30//3 31//3 32//3
f 38//3 11//3 12//3 34//3 37//3 36//3 35//3 13//3 14//3 39//3 40//3 41//3
f 16//1 17//1 18//1 10//1 22//1 29//1 32//1 31//1 30//1 19//1 9//1 15//1
f 48//3 43//3 42//3 44//3 47//3 46//3 45//3 24//3 23//3 49//3 50//3 51//3
f 45//1 46//1 47//1 44//1 42//1 52//1 53//1 56//1 55//1 54//1 33//1 24//1
f 28//1 25//1 21//1 11//1 38//1 41//1 40//1 39//1 14//1 20//1 26//1 27//1
f 53//3 52//3 330//3 331//3 33//3 54//3 55//3 56//3
f 3//4 4//4 9//4 19//4 20//4 14//4 13//4 23//4 24//4 33//4 331//4 332//4 333//4
f 34//1 12//1 43//1 48//1 51//1 50//1 49//1 23//1 13//1 35//1 36//1 37//1
f 57//5 58//5 61//5 62//5 63//5 64//5 60//5 59//5
f 59//2 326//2 329//2 57//2
f 61//3 58//3 66//3 74//3 73//3 72//3 71//3 65//3 60//3 64//3 63//3 62//3
f 85//3 78//3 77//3 81//3 84//3 83//3 82//3 76//3 75//3 86//3 87//3 88//3
f 94//3 67//3 68//3 90//3 93//3 92//3 91//3 69//3 70//3 95//3 96//3 97//3
f 72//5 73//5 74//5 66//5 78//5 85//5 88//5 87//5 86//5 75//5 65//5 71//5
f 104//3 99//3 98//3 100//3 103//3 102//3 101//3 80//3 79//3 105//3 106//3 107//3
f 101//5 102//5 103//5 100//5 98//5 108//5 109//5 112//5 111//5 110//5 89//5 80//5
f 84//5 81//5 77//5 67//5 94//5 97//5 96//5 95//5 70//5 76//5 82//5 83//5
f 109//3 108//3 327//3 328//3 89//3 110//3 111//3 112//3
f 59//6 60//6 65//6 75//6 76//6 70//6 69//6 79//6 80//6 89//6 328//6 326//6
f 90//5 68//5 99//5 104//5 107//5 106//5 105//5 79//5 69//5 91//5 92//5 93//5
f 113//2 183//2 181//2 116//2
f 117//1 118//1 119//1 120//1 113//1 332//1 331//1 330//1 116//1 121//1
f 117//1 121//1 122//1 120//1 119//1 123//1 124//1 125//1
f 113//4 120//4 313//4 323//4 318//4 296//4 292//4 276//4 280//4 268//4 259//4 203//4 199//4 198//4 235//4 242//4 238//4 211//4 207//4 222//4 227//4 128//4 114//4 167//4 165//4 161//4 163//4 157//4 159//4 155//4 153//4 147//4 149//4 151//4 169//4 171//4 173//4 175//4 177//4 179//4 182//4 183//4
f 129//5 130//5 115//5 326//5 328//5 327//5 325//5 114//5 131//5 132//5 133//5
f 129//5 134//5 135//5 131//5 114//5 128//5 136//5 130//5
f 134//5 137//5 135//5
f 115//6 130//6 231//6 226//6 221//6 223//6 249//6 208//6 212//6 239//6 243//6 200//6 204//6 255//6 264//6 258//6 267//6 278//6 274//6 290//6 294//6 319//6 306//6 316//6 320//6 322//6 121//6 116//6 181//6 180//6 178//6 176//6 174//6 172//6 170//6 168//6 150//6 148//6 146//6 152//6 154//6 158//6 156//6 162//6 160//6 164//6 166//6
f 139//7 136//7 128//7 127//7 120//7 122//7
f 138//8 130//8 136//8 139//8 122//8 121//8
f 119//3 118//3 133//3 132//3
f 123//6 119//6 324//6 312//6 308//6 317//6 295//6 303//6 299//6 291//6 275//6 287//6 283//6 279//6 266//6 271//6 262//6 254//6 253//6 247//6 197//6 241//6 187//6 195//6 237//6 210//6 191//6 216//6 206//6 225//6 220//6 234//6 131//6 143//6
f 129//4 133//4 228//4 233//4 219//4 224//4 248//4 215//4 190//4 194//4 186//4 240//4 196//4 246//4 252//4 201//4 256//4 260//4 269//4 265//4 277//4 281//4 285//4 273//4 289//4 297//4 301//4 293//4 315//4 305//4 310//4 321//4 118//4 117//4 144//4
f 145//9 124//9 123//9 143//9 131//9 134//9
f 144//10 117//10 124//10 145//10 134//10 129//10
f 124//5 125//5 126//5
f 140//5 141//5 142//5
f 145//2 125//2 126//2 137//2 135//2
f 154//11 155//11 159//11 158//11
f 174//12 175//12 173//12 172//12
f 150//13 151//13 149//13 148//13
f 162//14 163//14 161//14 160//14
f 172//15 173//15 171//15 170//15
f 168//16 169//16 151//16 150//16
f 176//17 177//17 175//17 174//17
f 164//18 165//18 167//18 166//18
f 146//19 147//19 153//19 152//19
f 158//20 159//20 157//20 156//20
f 166//2 167//2 114//2 115//2
f 182//21 180//21 181//21 183//21
f 156//22 157//22 163//22 162//22
f 180//23 182//23 179//23 178//23
f 152//24 153//24 155//24 154//24
f 160//25 161//25 165//25 164//25
f 170//26 171//26 169//26 168//26
f 178//27 179//27 177//27 176//27
f 148//28 149//28 147//28 146//28
f 309//2 308//2 312//2 314//2
f 305//2 307//2 311//2 310//2
f 278//3 277//3 273//3 274//3
f 279//3 280//3 276//3 275//3
f 280//1 279//1 283//1 284//1
f 277//1 278//1 282//1 281//1
f 213//2 216//2 191//2 188//2
f 215//2 214//2 189//2 190//2
f 208//3 205//3 209//3 212//3
f 206//3 207//3 211//3 210//3
f 212//5 209//5 190//5 189//5
f 210//5 211//5 188//5 191//5
f 226//3 228//3 224//3 221//3
f 229//3 227//3 222//3 225//3
f 239//3 236//3 240//3 243//3
f 237//3 238//3 242//3 241//3
f 238//1 237//1 195//1 192//1
f 236//1 239//1 193//1 194//1
f 274//5 273//5 285//5 286//5
f 275//5 276//5 288//5 287//5
f 227//1 229//1 234//1 230//1
f 228//1 226//1 231//1 232//1 233//1
f 121//6 322//6 311//6 307//6 306//6 319//6 302//6 298//6 290//6 274//6 286//6 282//6 278//6 267//6 270//6 261//6 264//6 255//6 251//6 245//6 200//6 243//6 185//6 193//6 239//6 212//6 189//6 214//6 249//6 223//6 218//6 232//6 231//6 130//6 138//6
f 318//1 317//1 308//1 309//1
f 315//1 316//1 306//1 307//1 305//1
f 131//6 234//6 229//6 225//6 206//6 210//6 237//6 241//6 197//6 202//6 254//6 262//6 257//6 266//6 279//6 275//6 291//6 295//6 317//6 324//6 119//6 132//6
f 258//3 256//3 265//3 267//3
f 257//3 259//3 268//3 266//3
f 267//5 265//5 269//5 270//5
f 266//5 268//5 272//5 271//5
f 284//2 283//2 287//2 288//2
f 281//2 282//2 286//2 285//2
f 243//5 240//5 186//5 185//5
f 241//5 242//5 235//5 184//5 187//5
f 204//5 201//5 252//5 251//5 255//5
f 202//5 203//5 250//5 253//5 254//5
f 199//1 197//1 247//1 244//1 198//1
f 196//1 200//1 245//1 246//1
f 230//2 234//2 220//2 217//2
f 233//2 232//2 218//2 219//2
f 118//4 321//4 315//4 293//4 289//4 273//4 277//4 265//4 256//4 201//4 196//4 240//4 236//4 194//4 190//4 209//4 205//4 248//4 224//4 228//4 133//4
f 244//2 247//2 253//2 250//2
f 246//2 245//2 251//2 252//2
f 300//2 299//2 303//2 304//2
f 297//2 298//2 302//2 301//2
f 207//1 206//1 216//1 213//1
f 205//1 208//1 249//1 214//1 215//1 248//1
f 128//4 227//4 230//4 217//4 222//4 207//4 213//4 188//4 211//4 238//4 192//4 184//4 235//4 198//4 244//4 250//4 203//4 259//4 263//4 272//4 268//4 280//4 284//4 288//4 276//4 292//4 300//4 304//4 296//4 318//4 309//4 314//4 313//4 120//4 127//4
f 192//2 195//2 187//2 184//2
f 194//2 193//2 185//2 186//2
f 294//5 293//5 301//5 302//5 319//5
f 295//5 296//5 304//5 303//5
f 263//2 262//2 271//2 272//2
f 260//2 261//2 270//2 269//2
f 221//5 224//5 219//5 218//5 223//5
f 225//5 222//5 217//5 220//5
f 200//3 196//3 201//3 204//3
f 197//3 199//3 203//3 202//3
f 316//3 315//3 321//3 320//3
f 317//3 318//3 323//3 324//3
f 259//1 257//1 262//1 263//1
f 256//1 258//1 264//1 261//1 260//1
f 290//3 289//3 293//3 294//3
f 291//3 292//3 296//3 295//3
f 292//1 291//1 299//1 300//1
f 289//1 290//1 298//1 297//1
f 320//5 321//5 310//5 311//5 322//5
f 324//5 323//5 313//5 314//5 312//5
f 114//5 325//5 329//5 326//5 115//5
f 329//4 325//4 327//4 108//4 98//4 99//4 68//4 67//4 77//4 78//4 66//4 58//4 57//4
f 116//1 330//1 334//1 333//1 332//1 113//1
f 334//6 330//6 52//6 42//6 43//6 12//6 11//6 21//6 22//6 10//6 2//6 1//6
