# Blender v2.79 (sub 0) OBJ File: 'bridge3.blend'
# www.blender.org
mtllib bridge3.mtl
o Cylinder
v -1.000000 0.037064 -1.807240
v 1.000000 0.037064 -1.807240
v -1.000000 0.037065 1.807241
v 1.000000 0.037065 1.807240
v -1.000000 0.158026 1.594430
v 1.000000 0.158026 1.594430
v -1.000000 0.382684 1.225792
v 1.000000 0.382684 1.225792
v -1.000000 0.555571 1.012803
v 1.000000 0.555571 1.012803
v -1.000000 0.707107 0.782768
v 1.000000 0.707107 0.782768
v -1.000000 0.831470 0.615017
v 1.000000 0.831470 0.615017
v -1.000000 0.923880 0.382683
v 1.000000 0.923880 0.382683
v -1.000000 0.980785 0.195089
v 1.000000 0.980785 0.195089
v -1.000000 1.000000 -0.000001
v 1.000000 1.000000 -0.000001
v -1.000000 0.980785 -0.195091
v 1.000000 0.980785 -0.195091
v -1.000000 0.923879 -0.382684
v 1.000000 0.923879 -0.382684
v -1.000000 0.831469 -0.615018
v 1.000000 0.831469 -0.615018
v -1.000000 0.707106 -0.782770
v 1.000000 0.707106 -0.782770
v -1.000000 0.555569 -1.012805
v 1.000000 0.555569 -1.012805
v -1.000000 0.382682 -1.225793
v 1.000000 0.382682 -1.225793
v -1.000000 0.158025 -1.594432
v 1.000000 0.158025 -1.594432
v -0.747581 0.037064 -1.807240
v -0.747581 0.037065 1.807241
v -0.747581 0.158026 1.594430
v -0.747581 0.382684 1.225792
v -0.747581 0.555571 1.012803
v -0.747581 0.707107 0.782768
v -0.747581 0.831470 0.615017
v -0.747581 0.923880 0.382683
v -0.747581 0.980785 0.195089
v -0.747581 1.000000 -0.000001
v -0.747581 0.980785 -0.195091
v -0.747581 0.923879 -0.382684
v -0.747581 0.831469 -0.615018
v -0.747581 0.707106 -0.782770
v -0.747581 0.555569 -1.012805
v -0.747581 0.382682 -1.225793
v -0.747581 0.158025 -1.594432
v 0.790984 0.037064 -1.807240
v 0.790984 0.037065 1.807240
v 0.790984 0.158026 1.594430
v 0.790984 0.382684 1.225792
v 0.790984 0.555571 1.012803
v 0.790984 0.707107 0.782768
v 0.790984 0.831470 0.615017
v 0.790984 0.923880 0.382683
v 0.790984 0.980785 0.195089
v 0.790984 1.000000 -0.000001
v 0.790984 0.980785 -0.195091
v 0.790984 0.923879 -0.382684
v 0.790984 0.831469 -0.615018
v 0.790984 0.707106 -0.782770
v 0.790984 0.555569 -1.012805
v 0.790984 0.382682 -1.225793
v 0.790984 0.158025 -1.594432
v 0.790984 0.068343 -1.807240
v 1.000000 0.068343 -1.807240
v -0.747581 0.068343 1.807241
v -1.000000 0.068343 1.807241
v -1.000000 0.189305 1.594430
v 1.000000 0.189305 1.594430
v 1.000000 0.068343 1.807240
v -0.747581 0.189305 1.594430
v -1.000000 0.413963 1.225792
v 1.000000 0.413963 1.225792
v -0.747581 0.413963 1.225792
v -1.000000 0.586849 1.012803
v 1.000000 0.586850 1.012803
v -0.747581 0.586849 1.012803
v -1.000000 0.738386 0.782768
v 1.000000 0.738386 0.782768
v -0.747581 0.738386 0.782768
v -1.000000 0.862749 0.615017
v 1.000000 0.862749 0.615017
v -0.747581 0.862749 0.615017
v -1.000000 0.955159 0.382683
v 1.000000 0.955159 0.382683
v -0.747581 0.955159 0.382683
v -1.000000 1.012064 0.195089
v 1.000000 1.012064 0.195089
v -0.747581 1.012064 0.195089
v -1.000000 1.031279 -0.000001
v 1.000000 1.031279 -0.000001
v -0.747581 1.031279 -0.000001
v -1.000000 1.012064 -0.195091
v 1.000000 1.012064 -0.195091
v -0.747581 1.012064 -0.195091
v -1.000000 0.955158 -0.382684
v 1.000000 0.955158 -0.382684
v -0.747581 0.955158 -0.382684
v -1.000000 0.862748 -0.615018
v 1.000000 0.862748 -0.615018
v -0.747581 0.862748 -0.615018
v -1.000000 0.738385 -0.782770
v 1.000000 0.738385 -0.782770
v -0.747581 0.738385 -0.782770
v -1.000000 0.586848 -1.012805
v 1.000000 0.586848 -1.012805
v -0.747581 0.586848 -1.012805
v -1.000000 0.413961 -1.225793
v 1.000000 0.413961 -1.225793
v -0.747581 0.413961 -1.225793
v -1.000000 0.189304 -1.594432
v 1.000000 0.189304 -1.594432
v -0.747581 0.189304 -1.594432
v -1.000000 0.068343 -1.807240
v -0.747581 0.068343 -1.807240
v 0.790984 0.068343 1.807240
v 0.790984 0.189305 1.594430
v 0.790984 0.413963 1.225792
v 0.790984 0.586850 1.012803
v 0.790984 0.738386 0.782768
v 0.790984 0.862749 0.615017
v 0.790984 0.955159 0.382683
v 0.790984 1.012064 0.195089
v 0.790984 1.031279 -0.000001
v 0.790984 1.012064 -0.195091
v 0.790984 0.955158 -0.382684
v 0.790984 0.862748 -0.615018
v 0.790984 0.738385 -0.782770
v 0.790984 0.586848 -1.012805
v 0.790984 0.413961 -1.225793
v 0.790984 0.189304 -1.594432
v 0.790984 0.227436 -1.807240
v 1.000000 0.227436 -1.807240
v -0.747581 0.227437 1.807240
v -1.000000 0.227437 1.807241
v -1.000000 0.348398 1.594430
v 1.000000 0.348399 1.594430
v 1.000000 0.227437 1.807240
v -0.747581 0.348398 1.594430
v -0.747581 0.573056 1.225791
v -1.000000 0.573056 1.225791
v -1.000000 0.745943 1.012803
v 1.000000 0.745943 1.012803
v 1.000000 0.573056 1.225791
v -0.747581 0.745943 1.012803
v -0.747581 0.897479 0.782768
v -1.000000 0.897479 0.782768
v -1.000000 1.021842 0.615017
v 1.000000 1.021842 0.615017
v 1.000000 0.897479 0.782768
v -0.747581 1.021842 0.615017
v -0.747581 1.114252 0.382683
v -1.000000 1.114252 0.382683
v -1.000000 1.171157 0.195089
v 1.000000 1.171158 0.195089
v 1.000000 1.114252 0.382683
v -0.747581 1.171158 0.195089
v -0.747581 1.171157 -0.195091
v -1.000000 1.171157 -0.195091
v -1.000000 1.114251 -0.382685
v 1.000000 1.114251 -0.382685
v 1.000000 1.171157 -0.195091
v -0.747581 1.114251 -0.382685
v -0.747581 1.021841 -0.615018
v -1.000000 1.021841 -0.615018
v -1.000000 0.897478 -0.782770
v 1.000000 0.897478 -0.782770
v 1.000000 1.021841 -0.615018
v -0.747581 0.897478 -0.782770
v -0.747581 0.745941 -1.012805
v -1.000000 0.745941 -1.012805
v -1.000000 0.573054 -1.225793
v 1.000000 0.573054 -1.225793
v 1.000000 0.745941 -1.012805
v -0.747581 0.573054 -1.225793
v -0.747581 0.348397 -1.594432
v -1.000000 0.348397 -1.594432
v -1.000000 0.227436 -1.807240
v 1.000000 0.348397 -1.594432
v -0.747581 0.227436 -1.807240
v 0.790984 0.227437 1.807240
v 0.790984 0.348399 1.594430
v 0.790984 0.573056 1.225791
v 0.790984 0.745943 1.012803
v 0.790984 0.897479 0.782768
v 0.790984 1.021842 0.615017
v 0.790984 1.114252 0.382683
v 0.790984 1.171158 0.195089
v 0.790984 1.171157 -0.195091
v 0.790984 1.114251 -0.382685
v 0.790984 1.021841 -0.615018
v 0.790984 0.897478 -0.782770
v 0.790984 0.745941 -1.012805
v 0.790984 0.573054 -1.225793
v 0.790984 0.348397 -1.594432
v 0.790984 0.037060 -0.825155
v 1.000000 0.037060 -0.825155
v -1.000000 0.037060 -0.825155
v 1.000000 0.189215 -0.810169
v -1.000000 0.189215 -0.810169
v 1.000000 0.335525 -0.765787
v -1.000000 0.335524 -0.765787
v 1.000000 0.757620 0.253238
v -1.000000 0.757620 0.253238
v 1.000000 0.685547 0.388078
v -1.000000 0.685547 0.388078
v 1.000000 0.802002 0.106929
v -1.000000 0.802002 0.106929
v -1.000000 0.588553 0.506265
v 1.000000 0.588553 0.506265
v 1.000000 0.189217 0.719715
v -1.000000 0.189217 0.719715
v 0.790984 0.037060 0.734702
v 1.000000 0.037060 0.734702
v -1.000000 0.037060 0.734702
v -1.000000 0.335526 0.675333
v 1.000000 0.335526 0.675333
v -1.000000 0.588552 -0.596720
v 1.000000 0.588552 -0.596720
v -1.000000 0.470364 -0.693714
v 1.000000 0.470364 -0.693714
v 1.000000 0.685546 -0.478533
v -1.000000 0.685546 -0.478533
v 1.000000 0.816988 -0.045228
v -1.000000 0.816988 -0.045228
v 1.000000 0.470365 0.603260
v -1.000000 0.470365 0.603260
v 1.000000 0.802002 -0.197384
v -1.000000 0.802002 -0.197384
v 1.000000 0.757619 -0.343693
v -1.000000 0.757619 -0.343693
vn -1.0000 0.0000 0.0000
vn 0.0000 0.8539 0.5204
vn 1.0000 0.0000 0.0000
vn 0.0000 0.0000 -1.0000
vn 0.0000 0.8694 -0.4942
vn -0.0000 0.8539 -0.5204
vn -0.0000 0.7764 -0.6302
vn -0.0000 0.8351 -0.5501
vn -0.0000 0.8033 -0.5955
vn -0.0000 0.9292 -0.3696
vn -0.0000 0.9569 -0.2903
vn -0.0000 0.9952 -0.0980
vn -0.0000 0.9952 0.0980
vn -0.0000 0.9569 0.2903
vn -0.0000 0.9292 0.3696
vn -0.0000 0.8033 0.5955
vn -0.0000 0.8351 0.5501
vn -0.0000 0.7764 0.6302
vn -0.0000 0.8694 0.4942
vn 0.0000 -1.0000 -0.0000
vn 0.0000 0.0000 1.0000
vn 0.0000 -0.7730 -0.6344
vn 0.0000 -0.6344 0.7730
vn 0.0000 -0.9952 0.0980
vn 0.0000 -0.2903 -0.9569
vn 0.0000 -0.9569 0.2903
vn 0.0000 -0.7730 0.6344
vn 0.0000 -0.4714 0.8819
vn 0.0000 -0.9569 -0.2903
vn 0.0000 -0.6344 -0.7730
vn 0.0000 -0.4714 -0.8819
vn 0.0000 -0.8819 -0.4714
vn 0.0000 -0.0980 0.9952
vn 0.0000 -0.0980 -0.9952
vn 0.0000 -0.8819 0.4714
vn 0.0000 -0.2903 0.9569
vn 0.0000 -0.9952 -0.0980
usemtl None
s off
f 1//1 203//1 205//1 207//1 225//1 223//1 228//1 236//1 234//1 230//1 213//1 209//1 211//1 214//1 232//1 221//1 217//1 220//1 3//1 5//1 7//1 9//1 11//1 13//1 15//1 17//1 19//1 21//1 23//1 25//1 27//1 29//1 31//1 33//1
f 122//2 74//2 78//2 123//2
f 38//3 39//3 82//3 79//3
f 64//1 63//1 131//1 132//1
f 21//1 19//1 95//1 98//1
f 39//3 40//3 85//3 82//3
f 65//1 64//1 132//1 133//1
f 40//3 41//3 88//3 85//3
f 66//1 65//1 133//1 134//1
f 2//4 52//4 69//4 70//4
f 18//3 20//3 96//3 93//3
f 41//3 42//3 91//3 88//3
f 67//1 66//1 134//1 135//1
f 19//1 17//1 92//1 95//1
f 35//4 1//4 119//4 120//4
f 42//3 43//3 94//3 91//3
f 68//1 67//1 135//1 136//1
f 34//3 2//3 70//3 117//3
f 4//3 219//3 216//3 222//3 231//3 215//3 210//3 208//3 212//3 229//3 233//3 235//3 227//3 224//3 226//3 206//3 204//3 202//3 2//3 34//3 32//3 30//3 28//3 26//3 24//3 22//3 20//3 18//3 16//3 14//3 12//3 10//3 8//3 6//3
f 43//3 44//3 97//3 94//3
f 52//1 68//1 136//1 69//1
f 16//3 18//3 93//3 90//3
f 1//1 33//1 116//1 119//1
f 44//3 45//3 100//3 97//3
f 17//1 15//1 89//1 92//1
f 45//3 46//3 103//3 100//3
f 32//3 34//3 117//3 114//3
f 46//3 47//3 106//3 103//3
f 14//3 16//3 90//3 87//3
f 33//1 31//1 113//1 116//1
f 47//3 48//3 109//3 106//3
f 15//1 13//1 86//1 89//1
f 48//3 49//3 112//3 109//3
f 30//3 32//3 114//3 111//3
f 49//3 50//3 115//3 112//3
f 71//3 76//3 144//3 139//3
f 51//5 68//5 52//5 35//5
f 50//6 67//6 68//6 51//6
f 49//7 66//7 67//7 50//7
f 48//8 65//8 66//8 49//8
f 47//9 64//9 65//9 48//9
f 46//10 63//10 64//10 47//10
f 45//11 62//11 63//11 46//11
f 44//12 61//12 62//12 45//12
f 43//13 60//13 61//13 44//13
f 42//14 59//14 60//14 43//14
f 41//15 58//15 59//15 42//15
f 40//16 57//16 58//16 41//16
f 39//17 56//17 57//17 40//17
f 38//18 55//18 56//18 39//18
f 37//2 54//2 55//2 38//2
f 36//19 53//19 54//19 37//19
f 128//1 127//1 192//1 193//1
f 52//20 2//20 202//20 201//20 203//20 1//20 35//20
f 124//17 81//17 84//17 125//17
f 109//4 107//4 171//4 174//4
f 126//15 87//15 90//15 127//15
f 79//3 82//3 150//3 145//3
f 128//13 93//13 96//13 129//13
f 129//12 96//12 99//12 130//12
f 82//4 80//4 147//4 150//4
f 131//10 102//10 105//10 132//10
f 105//3 108//3 172//3 173//3
f 133//8 108//8 111//8 134//8
f 131//1 130//1 194//1 195//1
f 135//6 114//6 117//6 136//6
f 78//3 81//3 148//3 149//3
f 107//1 104//1 170//1 171//1
f 113//6 115//6 118//6 116//6
f 85//3 88//3 156//3 151//3
f 107//8 109//8 112//8 110//8
f 80//1 77//1 146//1 147//1
f 101//10 103//10 106//10 104//10
f 104//21 106//21 169//21 170//21
f 95//12 97//12 100//12 98//12
f 92//13 94//13 97//13 95//13
f 133//1 132//1 196//1 197//1
f 86//15 88//15 91//15 89//15
f 77//21 79//21 145//21 146//21
f 80//17 82//17 85//17 83//17
f 91//3 94//3 162//3 157//3
f 73//2 76//2 79//2 77//2
f 135//1 134//1 198//1 199//1
f 20//3 22//3 99//3 96//3
f 3//21 36//21 71//21 72//21
f 63//1 62//1 130//1 131//1
f 37//3 38//3 79//3 76//3
f 5//1 3//1 72//1 73//1
f 62//1 61//1 129//1 130//1
f 36//3 37//3 76//3 71//3
f 23//1 21//1 98//1 101//1
f 4//3 6//3 74//3 75//3
f 61//1 60//1 128//1 129//1
f 22//3 24//3 102//3 99//3
f 60//1 59//1 127//1 128//1
f 7//1 5//1 73//1 77//1
f 59//1 58//1 126//1 127//1
f 53//21 4//21 75//21 121//21
f 25//1 23//1 101//1 104//1
f 6//3 8//3 78//3 74//3
f 58//1 57//1 125//1 126//1
f 24//3 26//3 105//3 102//3
f 57//1 56//1 124//1 125//1
f 9//1 7//1 77//1 80//1
f 56//1 55//1 123//1 124//1
f 27//1 25//1 104//1 107//1
f 8//3 10//3 81//3 78//3
f 55//1 54//1 122//1 123//1
f 26//3 28//3 108//3 105//3
f 54//1 53//1 121//1 122//1
f 11//1 9//1 80//1 83//1
f 29//1 27//1 107//1 110//1
f 10//3 12//3 84//3 81//3
f 28//3 30//3 111//3 108//3
f 51//3 35//3 120//3 118//3
f 13//1 11//1 83//1 86//1
f 50//3 51//3 118//3 115//3
f 31//1 29//1 110//1 113//1
f 12//3 14//3 87//3 84//3
f 186//19 143//19 142//19 187//19
f 188//18 149//18 148//18 189//18
f 190//16 155//16 154//16 191//16
f 192//14 161//14 160//14 193//14
f 194//11 167//11 166//11 195//11
f 196//9 173//9 172//9 197//9
f 198//7 179//7 178//7 199//7
f 200//5 184//5 138//5 137//5
f 182//5 181//5 185//5 183//5
f 176//7 175//7 180//7 177//7
f 170//9 169//9 174//9 171//9
f 164//11 163//11 168//11 165//11
f 158//14 157//14 162//14 159//14
f 152//16 151//16 156//16 153//16
f 146//18 145//18 150//18 147//18
f 140//19 139//19 144//19 141//19
f 83//21 85//21 151//21 152//21
f 121//21 75//21 143//21 186//21
f 110//21 112//21 175//21 176//21
f 86//1 83//1 152//1 153//1
f 126//1 125//1 190//1 191//1
f 74//4 122//4 187//4 142//4
f 113//1 110//1 176//1 177//1
f 84//3 87//3 154//3 155//3
f 123//21 78//21 149//21 188//21
f 111//3 114//3 178//3 179//3
f 88//4 86//4 153//4 156//4
f 124//1 123//1 188//1 189//1
f 81//4 124//4 189//4 148//4
f 115//4 113//4 177//4 180//4
f 125//21 84//21 155//21 190//21
f 122//1 121//1 186//1 187//1
f 87//4 126//4 191//4 154//4
f 89//21 91//21 157//21 158//21
f 70//4 69//4 137//4 138//4
f 127//21 90//21 161//21 192//21
f 116//21 118//21 181//21 182//21
f 92//1 89//1 158//1 159//1
f 93//4 128//4 193//4 160//4
f 119//1 116//1 182//1 183//1
f 90//3 93//3 160//3 161//3
f 117//3 70//3 138//3 184//3
f 94//4 92//4 159//4 162//4
f 130//21 99//21 167//21 194//21
f 120//4 119//4 183//4 185//4
f 102//4 131//4 195//4 166//4
f 118//3 120//3 185//3 181//3
f 132//21 105//21 173//21 196//21
f 108//4 133//4 197//4 172//4
f 112//3 115//3 180//3 175//3
f 134//21 111//21 179//21 198//21
f 72//21 71//21 139//21 140//21
f 114//4 135//4 199//4 178//4
f 106//3 109//3 174//3 169//3
f 98//21 100//21 163//21 164//21
f 73//1 72//1 140//1 141//1
f 136//21 117//21 184//21 200//21
f 101//1 98//1 164//1 165//1
f 75//3 74//3 142//3 143//3
f 69//1 136//1 200//1 137//1
f 100//3 103//3 168//3 163//3
f 99//3 102//3 166//3 167//3
f 76//4 73//4 141//4 144//4
f 103//4 101//4 165//4 168//4
f 211//22 210//22 215//22 214//22
f 225//23 226//23 224//23 223//23
f 234//24 233//24 229//24 230//24
f 221//25 222//25 216//25 217//25
f 236//26 235//26 233//26 234//26
f 223//27 224//27 227//27 228//27
f 207//28 206//28 226//28 225//28
f 213//29 212//29 208//29 209//29
f 214//30 215//30 231//30 232//30
f 220//20 218//20 219//20 4//20 53//20 36//20 3//20
f 232//31 231//31 222//31 221//31
f 209//32 208//32 210//32 211//32
f 203//33 201//33 202//33 204//33 205//33
f 217//34 216//34 219//34 218//34 220//34
f 228//35 227//35 235//35 236//35
f 205//36 204//36 206//36 207//36
f 230//37 229//37 212//37 213//37
