# Blender v2.79 (sub 0) OBJ File: 'track.blend'
# www.blender.org
mtllib track.mtl
o Cube
v 4.058067 -0.093924 -4.058068
v 4.058067 -0.093924 4.058067
v -4.058068 -0.093924 4.058066
v -4.058066 -0.093924 -4.058069
v 4.058069 0.093925 -4.058065
v 4.058065 0.093925 4.058070
v -4.058069 0.093925 4.058066
v -4.058067 0.093925 -4.058066
v 7.267871 -0.093924 -7.267871
v 7.267871 -0.093924 7.267871
v -7.267868 -0.093924 -7.267873
v -7.267872 -0.093924 7.267869
v 7.267874 0.093925 -7.267868
v 7.267867 0.093925 7.267875
v -7.267870 0.093925 -7.267871
v -7.267873 0.093925 7.267869
v 4.600223 -0.093924 -4.600223
v 4.600223 -0.093924 4.600223
v -4.600221 -0.093924 -4.600224
v -4.600224 -0.093924 4.600221
v 4.600224 0.093925 -4.600220
v 4.600220 0.093925 4.600225
v -4.600223 0.093925 -4.600222
v -4.600224 0.093925 4.600221
v 4.112180 -0.093924 -4.112180
v 4.112180 -0.093924 4.112180
v -4.112178 -0.093924 -4.112182
v -4.112181 -0.093924 4.112179
v 4.112182 0.093925 -4.112177
v 4.112177 0.093925 4.112183
v -4.112180 0.093925 -4.112179
v -4.112181 0.093925 4.112179
v 4.112182 0.143220 -4.112177
v 4.112177 0.143220 4.112183
v -4.112180 0.143220 -4.112179
v -4.112181 0.143220 4.112179
v 4.058069 0.143220 -4.058065
v 4.058065 0.143220 4.058070
v -4.058067 0.143220 -4.058066
v -4.058069 0.143220 4.058066
vn 0.0000 -1.0000 -0.0000
vn 0.0000 1.0000 0.0000
vn 1.0000 0.0000 0.0000
vn -0.0000 -0.0000 1.0000
vn -1.0000 -0.0000 -0.0000
vn 0.0000 0.0000 -1.0000
usemtl Material
s off
f 1//1 2//1 3//1 4//1
f 5//2 8//2 7//2 6//2
f 9//3 13//3 14//3 10//3
f 10//4 14//4 16//4 12//4
f 12//5 16//5 15//5 11//5
f 13//6 9//6 11//6 15//6
f 18//1 17//1 9//1 10//1
f 17//1 19//1 11//1 9//1
f 20//1 18//1 10//1 12//1
f 19//1 20//1 12//1 11//1
f 21//2 22//2 14//2 13//2
f 23//2 21//2 13//2 15//2
f 22//2 24//2 16//2 14//2
f 24//2 23//2 15//2 16//2
f 27//5 28//5 32//5 31//5
f 27//6 31//6 29//6 25//6
f 26//3 25//3 29//3 30//3
f 28//4 26//4 30//4 32//4
f 20//6 24//6 22//6 18//6
f 18//5 22//5 21//5 17//5
f 19//4 17//4 21//4 23//4
f 19//3 23//3 24//3 20//3
f 2//1 1//1 25//1 26//1
f 1//1 4//1 27//1 25//1
f 3//1 2//1 26//1 28//1
f 4//1 3//1 28//1 27//1
f 6//6 7//6 40//6 38//6
f 30//3 29//3 33//3 34//3
f 32//4 30//4 34//4 36//4
f 8//4 5//4 37//4 39//4
f 37//2 38//2 34//2 33//2
f 39//2 37//2 33//2 35//2
f 38//2 40//2 36//2 34//2
f 40//2 39//2 35//2 36//2
f 5//5 6//5 38//5 37//5
f 31//5 32//5 36//5 35//5
f 29//6 31//6 35//6 33//6
f 7//3 8//3 39//3 40//3
